<?xml version="1.0" standalone="no"?>
<!DOCTYPE svg PUBLIC "-//W3C//DTD SVG 20010904//EN"
 "http://www.w3.org/TR/2001/REC-SVG-20010904/DTD/svg10.dtd">
<svg version="1.0" xmlns="http://www.w3.org/2000/svg"
 width="690.000000pt" height="690.000000pt" viewBox="0 0 690.000000 690.000000"
 preserveAspectRatio="xMidYMid meet">
<metadata>
Created by potrace 1.11, written by Peter Selinger 2001-2013
</metadata>
<g transform="translate(0.000000,690.000000) scale(0.100000,-0.100000)"
fill="#000000" stroke="none">
<path d="M5180 6868 c-221 -14 -438 -69 -620 -157 -47 -22 -90 -41 -97 -41
-14 0 -185 -116 -273 -185 -35 -27 -94 -81 -132 -119 l-68 -69 -47 12 c-64 16
-234 48 -330 61 -43 6 -89 13 -103 15 -66 14 -455 17 -562 5 -263 -28 -494
-82 -663 -155 -16 -7 -54 -20 -84 -29 -59 -17 -293 -142 -338 -180 -16 -13
-48 -35 -72 -48 -56 -31 -166 -126 -180 -155 -5 -12 -25 -39 -44 -60 -54 -61
-94 -145 -122 -257 -13 -54 -16 -104 -13 -241 2 -119 -1 -176 -9 -186 -6 -8
-16 -32 -22 -54 -9 -30 -25 -51 -66 -82 -71 -56 -119 -117 -139 -176 -30 -91
-16 -140 67 -227 39 -40 56 -66 53 -78 -25 -84 -50 -616 -36 -781 11 -139 22
-190 52 -241 l20 -35 -23 -14 c-33 -20 -149 -140 -149 -153 0 -6 -6 -19 -14
-27 -13 -14 -40 -95 -67 -201 -5 -19 -9 -90 -9 -156 0 -142 28 -272 85 -389
33 -67 116 -175 136 -175 5 0 23 -10 40 -22 17 -13 56 -32 87 -43 55 -19 57
-22 70 -70 14 -51 79 -222 92 -240 4 -5 10 -22 14 -37 11 -46 116 -190 195
-266 121 -117 280 -215 371 -227 25 -4 65 -13 90 -20 25 -8 101 -21 170 -30
158 -20 162 -21 124 -44 -48 -29 -144 -143 -209 -249 -33 -54 -68 -109 -78
-122 -65 -91 -197 -315 -197 -336 0 -10 -12 -46 -25 -79 -14 -33 -25 -65 -25
-71 0 -6 12 -33 26 -59 l25 -48 -36 -116 c-20 -64 -43 -136 -51 -160 -8 -25
-14 -46 -14 -48 0 -2 32 -3 70 -3 49 0 70 4 70 13 0 6 16 65 37 130 37 117 45
127 81 108 16 -9 82 -32 240 -82 70 -23 73 -29 47 -115 -8 -27 -15 -50 -15
-51 0 -2 54 -3 120 -3 113 0 120 1 120 20 0 20 7 20 721 20 712 0 721 0 726
-20 5 -19 14 -20 154 -20 l148 0 -30 32 c-36 40 -69 106 -69 137 0 13 7 37 15
54 8 18 33 84 55 147 23 63 59 165 81 225 22 61 47 134 54 163 7 29 39 120 69
202 31 81 56 157 56 167 0 10 8 35 19 56 18 36 18 37 -1 59 -53 61 -73 132
-53 190 8 24 15 46 15 49 0 3 -42 -3 -92 -13 -51 -10 -159 -27 -240 -38 -277
-36 -392 -66 -493 -124 -75 -44 -231 -105 -300 -117 -80 -14 -218 -6 -297 17
-29 9 -118 50 -198 91 -171 88 -195 94 -670 168 -257 40 -482 157 -597 311
-12 16 -36 47 -53 69 -34 42 -72 113 -85 155 -4 14 -15 43 -25 65 -34 78 -44
180 -45 455 l0 265 35 -3 c25 -2 47 4 74 23 21 14 39 25 41 23 1 -2 19 -57 40
-123 43 -138 61 -172 112 -211 110 -83 266 -109 613 -102 200 5 207 6 282 35
94 37 166 88 213 153 73 99 172 341 204 498 16 76 59 135 110 151 79 23 165
25 221 5 74 -26 104 -69 140 -196 53 -191 110 -326 189 -449 41 -66 120 -124
221 -165 62 -25 77 -27 280 -31 376 -9 491 11 616 108 46 35 57 51 87 128 20
48 38 104 42 124 8 40 19 45 49 22 28 -21 96 -19 126 5 14 11 28 20 33 20 13
0 8 -509 -7 -601 -18 -110 -62 -240 -102 -304 -37 -58 -174 -220 -212 -252
l-27 -21 30 -7 c17 -3 42 -13 58 -21 26 -15 29 -14 92 38 35 29 74 70 87 91
13 21 33 53 45 70 73 105 130 252 159 414 2 12 16 28 32 36 93 48 118 64 156
104 67 69 142 236 166 370 13 75 16 208 5 283 -22 158 -138 349 -238 391 -20
8 -26 16 -21 28 21 50 28 113 28 260 l1 165 63 40 c52 34 75 60 136 149 77
113 107 140 294 274 208 149 251 184 355 283 60 58 136 139 167 180 100 132
196 331 239 496 20 75 30 268 20 366 -30 304 -198 616 -445 829 -94 82 -251
189 -307 211 -27 10 -74 31 -105 47 -220 111 -538 168 -832 149z m397 -63
c136 -23 185 -37 431 -126 85 -30 159 -76 344 -211 45 -33 129 -119 212 -217
73 -87 152 -227 202 -359 59 -156 79 -383 49 -554 -53 -305 -239 -605 -495
-798 -40 -30 -90 -69 -112 -87 -21 -17 -58 -44 -83 -60 -51 -31 -96 -64 -242
-173 -56 -41 -156 -113 -223 -160 -67 -47 -140 -100 -162 -117 -22 -18 -45
-33 -52 -33 -7 0 -50 -25 -96 -56 -172 -115 -246 -137 -316 -94 -40 25 -59 75
-44 114 11 29 68 126 139 235 22 35 41 69 41 75 0 6 -58 21 -135 33 -276 46
-547 158 -736 304 -57 43 -106 79 -109 79 -4 0 -59 61 -122 135 -98 115 -124
152 -175 257 -34 68 -76 175 -94 238 -33 111 -34 121 -34 290 0 169 1 179 33
288 34 117 138 344 175 385 12 12 35 38 51 57 96 116 153 172 252 246 141 105
213 147 333 194 352 136 639 171 968 115z m-1837 -999 c0 -3 -4 -8 -10 -11 -5
-3 -10 -1 -10 4 0 6 5 11 10 11 6 0 10 -2 10 -4z m-1520 -1675 c25 -5 110 -27
190 -49 569 -159 1004 -213 1615 -198 154 3 324 9 378 12 l97 7 0 -145 c0 -80
-2 -147 -5 -150 -3 -3 -33 6 -66 19 -37 15 -92 27 -137 30 -53 4 -69 9 -55 14
26 9 125 78 135 93 12 18 9 63 -6 75 -7 6 -34 14 -59 17 -51 7 -63 0 -177
-106 -25 -23 -68 -57 -96 -76 -29 -19 -74 -55 -100 -80 -27 -25 -64 -52 -83
-60 -19 -8 -53 -32 -77 -54 l-44 -40 -265 0 c-154 0 -274 4 -285 10 -10 5 -20
20 -23 33 -5 20 -138 143 -201 187 -32 22 -177 142 -203 168 -26 26 -68 29
-119 7 -31 -13 -35 -18 -32 -47 3 -29 13 -40 81 -85 l79 -53 -44 0 c-78 -1
-164 -25 -229 -65 l-63 -39 -150 -2 c-83 -1 -202 -6 -265 -9 l-113 -7 7 43 c4
24 15 69 25 99 9 30 25 81 34 113 10 32 39 104 67 161 27 57 49 108 49 113 0
4 11 25 25 46 20 29 31 36 48 32 12 -3 42 -9 67 -14z m2470 -391 c0 -149 -2
-179 -15 -184 -8 -3 -22 -3 -30 0 -13 5 -15 35 -15 184 0 177 0 179 23 182 12
2 25 2 30 0 4 -2 7 -83 7 -182z m180 151 c6 -11 10 -89 10 -180 l0 -161 -25 0
-25 0 0 180 c0 151 2 180 15 180 8 0 19 -9 25 -19z m-2107 -338 c-24 -2 -62
-2 -85 0 -24 2 -5 4 42 4 47 0 66 -2 43 -4z m1540 0 c-23 -2 -64 -2 -90 0 -26
2 -7 3 42 3 50 0 71 -1 48 -3z m-1311 -158 c64 -9 75 -20 103 -98 32 -87 31
-108 -5 -246 -25 -93 -38 -124 -71 -167 -38 -50 -98 -98 -108 -88 -2 2 3 12
12 22 22 24 22 95 1 127 -18 27 -62 45 -111 45 -27 0 -44 -9 -70 -35 -33 -33
-35 -39 -30 -81 5 -50 33 -87 82 -110 27 -13 20 -14 -85 -11 -84 3 -124 8
-147 20 -58 31 -158 134 -194 199 -33 61 -34 66 -34 178 0 105 2 120 29 177
41 90 44 92 171 95 101 3 345 -12 457 -27z m1510 -2 c10 -39 40 -57 79 -49 27
5 29 3 45 -52 55 -183 0 -373 -139 -473 -45 -33 -57 -32 -33 3 33 47 12 133
-39 156 -59 27 -136 8 -161 -39 -34 -67 -6 -135 70 -170 l41 -19 -115 3 c-101
3 -121 6 -165 29 -48 25 -165 132 -165 150 0 5 -9 30 -21 55 -29 63 -41 157
-29 229 14 85 51 174 75 180 50 11 341 32 439 30 l110 -1 8 -32z m-2208 -5
c-3 -13 -12 -34 -19 -48 -24 -48 -38 -137 -33 -221 7 -117 60 -240 138 -319
141 -142 363 -185 539 -104 30 13 55 23 57 21 2 -2 -12 -26 -31 -54 -70 -105
-157 -151 -325 -174 -113 -15 -347 -5 -474 20 -156 32 -208 79 -258 234 -43
134 -59 319 -42 482 7 70 18 133 24 140 10 12 67 28 140 39 14 2 85 4 158 5
l133 1 -7 -22z m2586 7 c0 -44 74 -70 116 -41 20 14 21 13 38 -52 48 -194 44
-445 -10 -591 -37 -99 -97 -162 -178 -185 -115 -34 -174 -40 -381 -40 -202 0
-213 2 -283 27 -110 39 -176 95 -235 198 -38 64 -34 73 17 38 171 -115 341
-126 523 -33 83 41 98 53 138 110 84 117 124 220 124 319 1 38 -20 152 -33
186 -5 12 0 14 28 11 43 -5 74 11 82 43 4 18 13 25 30 25 15 0 24 -6 24 -15z
m-3212 -27 c13 -13 16 -47 6 -72 -10 -26 -53 -20 -60 9 -14 57 20 97 54 63z
m3634 -13 c8 -19 8 -31 0 -50 -13 -28 -47 -34 -56 -9 -24 62 29 118 56 59z
m-3833 -242 c19 -107 21 -159 20 -428 -1 -295 -2 -305 -20 -305 -34 0 -74 27
-128 86 -61 67 -72 85 -102 184 -34 108 -34 283 -1 390 32 103 63 151 130 206
l57 46 11 -28 c7 -16 21 -84 33 -151z m4074 121 c107 -59 167 -190 167 -364 0
-179 -67 -349 -176 -452 -59 -54 -58 -56 -55 197 1 127 3 248 5 270 1 22 3
115 4 208 1 92 4 167 6 167 2 0 24 -12 49 -26z m-893 -1890 c0 -23 -82 -284
-89 -284 -3 0 -17 16 -31 35 -14 18 -66 71 -117 117 l-91 83 41 12 c22 7 84
17 136 24 53 6 105 15 116 20 30 12 35 11 35 -7z m-1644 -146 c67 -34 137 -74
155 -90 l34 -28 -40 -33 c-22 -17 -61 -51 -86 -74 -25 -24 -49 -43 -53 -43 -3
0 -11 11 -16 25 -9 22 -62 104 -165 250 -19 27 -35 54 -35 59 0 21 94 -9 206
-66z m1117 56 c6 -7 -23 -70 -53 -114 -9 -14 -38 -63 -65 -110 -76 -135 -66
-132 -154 -48 -42 40 -77 76 -79 79 -2 6 39 38 148 116 20 15 172 80 191 82 3
1 8 -2 12 -5z m-1388 -144 c14 -22 25 -42 25 -45 0 -3 -37 -5 -82 -5 l-82 0
44 45 c24 25 50 45 57 45 7 0 24 -18 38 -40z m1574 -24 l24 -26 -71 0 c-80 0
-83 4 -51 56 l21 34 26 -19 c15 -10 38 -31 51 -45z m-741 -35 c-20 -51 -95
-201 -100 -201 -5 0 -8 10 -8 23 0 12 -16 58 -35 102 -19 44 -35 81 -35 82 0
2 41 3 91 3 50 0 89 -4 87 -9z m-680 -168 l25 -33 -237 0 c-130 0 -236 4 -236
8 0 4 10 20 22 35 l22 27 189 -2 189 -3 26 -32z m360 12 c19 -41 15 -45 -43
-45 -30 0 -55 3 -55 8 1 8 70 62 80 62 4 0 12 -11 18 -25z m502 -10 l34 -35
-67 0 -67 0 11 26 c21 57 41 59 89 9z m708 5 c12 -16 22 -32 22 -35 0 -3 -92
-5 -205 -5 -113 0 -205 3 -205 6 0 3 9 19 21 35 l20 29 163 0 162 0 22 -30z
m-1084 -272 c34 -93 54 -118 96 -118 42 0 69 33 103 124 l28 76 415 0 c228 0
414 -3 414 -7 0 -5 -14 -51 -31 -103 -16 -52 -37 -117 -46 -145 -9 -27 -17
-52 -19 -54 -2 -2 -15 6 -30 18 -31 25 -75 27 -108 6 -20 -13 -113 -15 -727
-13 l-704 3 -3 80 c-4 112 -27 132 -124 105 -36 -10 -37 -11 -56 -98 -11 -48
-23 -106 -27 -129 -4 -24 -9 -43 -11 -43 -31 0 -334 124 -334 137 0 3 23 48
50 101 28 53 50 101 50 107 0 34 19 35 530 35 l505 0 29 -82z m801 -378 c3 -6
3 -19 0 -30 -6 -20 -16 -20 -721 -20 l-714 0 0 30 0 30 714 0 c470 0 717 -3
721 -10z"/>
<path d="M5416 5792 c-3 -3 -6 -27 -6 -54 l0 -48 -36 0 c-31 0 -35 -3 -32 -22
2 -17 11 -24 31 -26 22 -3 27 -8 27 -30 0 -31 -43 -155 -66 -190 -15 -23 -15
-26 4 -44 19 -20 19 -19 43 38 l24 58 5 -125 c5 -116 6 -124 25 -124 19 0 20
8 25 150 5 137 6 147 19 118 15 -38 27 -42 36 -13 4 14 -4 39 -24 75 -40 70
-40 85 -1 85 25 0 30 4 30 25 0 21 -5 25 -29 25 -29 0 -30 2 -33 52 -2 39 -7
52 -20 54 -9 1 -19 -1 -22 -4z"/>
<path d="M5650 5780 c-8 -15 -23 -20 -67 -22 -34 -2 -58 -8 -61 -15 -3 -10 14
-13 63 -13 58 0 66 -2 63 -17 -2 -14 -15 -19 -56 -21 l-53 -3 3 -97 3 -97 170
0 170 0 3 98 3 97 -51 0 c-43 0 -50 3 -50 20 0 18 7 20 60 20 47 0 60 3 60 15
0 12 -13 15 -59 15 -50 0 -59 3 -64 20 -3 11 -13 20 -22 20 -9 0 -19 -9 -22
-20 -3 -11 -14 -20 -25 -20 -11 0 -22 9 -25 20 -7 25 -29 26 -43 0z m90 -70
c0 -21 -33 -29 -45 -10 -9 15 4 30 26 30 12 0 19 -7 19 -20z m-92 -82 c3 -14
-3 -18 -27 -18 -25 0 -31 4 -31 21 0 16 5 20 27 17 17 -2 29 -10 31 -20z m92
2 c0 -15 -7 -20 -25 -20 -24 0 -34 18 -18 33 15 15 43 7 43 -13z m100 0 c0
-15 -7 -20 -25 -20 -18 0 -25 5 -25 20 0 15 7 20 25 20 18 0 25 -5 25 -20z
m-192 -82 c3 -14 -3 -18 -27 -18 -25 0 -31 4 -31 21 0 16 5 20 27 17 17 -2 29
-10 31 -20z m92 2 c0 -21 -33 -29 -45 -10 -9 15 4 30 26 30 12 0 19 -7 19 -20z
m100 0 c0 -15 -7 -20 -25 -20 -18 0 -25 5 -25 20 0 15 7 20 25 20 18 0 25 -5
25 -20z"/>
<path d="M5032 5508 c3 -258 4 -283 20 -286 16 -3 18 11 20 155 l3 158 40 -40
c23 -22 50 -53 61 -69 l20 -28 18 27 18 27 -81 76 -81 75 0 94 c0 87 -1 93
-20 93 -20 0 -20 -5 -18 -282z"/>
<path d="M4707 5763 c-3 -5 -4 -120 -3 -258 l1 -250 138 -3 c132 -2 137 -2
137 18 0 17 -6 20 -50 20 l-50 0 0 60 0 60 45 0 45 0 0 105 0 105 -45 0 -45 0
0 54 0 55 47 3 c36 2 49 7 51 21 3 15 -8 17 -132 17 -74 0 -137 -3 -139 -7z
m133 -88 l0 -55 -45 0 -45 0 0 55 0 55 45 0 45 0 0 -55z m80 -160 l0 -55 -85
0 -85 0 0 55 0 55 85 0 85 0 0 -55z m-90 -165 l0 -60 -40 0 -40 0 0 60 0 60
40 0 40 0 0 -60z"/>
<path d="M6037 5523 c-18 -5 -47 -52 -47 -78 0 -25 39 -18 50 9 17 47 68 40
149 -19 57 -42 114 -28 146 36 26 50 -9 71 -39 24 -20 -30 -75 -35 -97 -8 -29
34 -104 51 -162 36z"/>
<path d="M5570 5339 c0 -114 1 -119 21 -119 13 0 23 8 26 20 5 19 13 20 99 19
83 -1 96 -4 109 -21 8 -13 20 -18 29 -15 13 5 16 26 16 116 0 96 -2 110 -17
114 -10 3 -78 5 -150 5 l-133 0 0 -119z m255 51 c0 -12 -19 -16 -102 -18 -98
-3 -103 -2 -103 18 0 20 5 21 103 18 83 -2 102 -6 102 -18z m-2 -66 c3 -3 3
-12 0 -20 -4 -11 -28 -14 -104 -14 -92 0 -99 1 -99 20 0 19 7 20 98 20 54 0
101 -3 105 -6z"/>
<path d="M3207 2393 c-23 -23 6 -631 37 -780 22 -103 76 -206 126 -239 88 -58
154 -60 235 -7 53 35 65 53 98 148 55 160 75 333 79 680 l3 200 -286 3 c-157
1 -288 -1 -292 -5z m486 -90 c5 -11 -11 -480 -18 -520 -3 -20 -12 -33 -20 -33
-8 0 -15 4 -15 8 0 4 -19 13 -42 19 -24 7 -52 15 -62 19 -15 6 -17 4 -11 -6 5
-9 4 -11 -4 -6 -18 12 -84 9 -116 -5 -16 -7 -37 -13 -45 -14 -10 0 -15 -10
-14 -33 3 -53 -13 -27 -31 51 -16 69 -40 501 -29 519 7 10 401 10 407 1z m-63
-563 c0 -5 -2 -10 -4 -10 -3 0 -8 5 -11 10 -3 6 -1 10 4 10 6 0 11 -4 11 -10z
m-273 -112 c-3 -8 -6 -5 -6 6 -1 11 2 17 5 13 3 -3 4 -12 1 -19z m280 -10 c-3
-7 -5 -2 -5 12 0 14 2 19 5 13 2 -7 2 -19 0 -25z m-228 -121 c8 -8 11 -6 12 9
1 10 4 3 8 -16 4 -24 12 -36 26 -39 11 -2 23 -8 27 -14 4 -7 12 -6 23 3 9 7
28 15 43 16 25 3 25 2 -8 -16 -38 -21 -80 -26 -80 -10 0 6 -6 10 -14 10 -8 0
-18 9 -21 20 -3 11 -10 20 -14 20 -9 0 -35 51 -33 63 1 4 -2 17 -8 28 -6 11
-8 25 -4 31 5 7 13 -11 20 -41 6 -29 17 -58 23 -64z m208 46 c-3 -10 -5 -4 -5
12 0 17 2 24 5 18 2 -7 2 -21 0 -30z m-27 -32 c0 -16 -12 -41 -20 -41 -4 0 -5
11 -2 25 4 23 22 36 22 16z"/>
<path d="M5788 955 c-19 -13 -58 -27 -87 -31 l-51 -7 1 -51 c2 -69 -20 -118
-67 -147 l-39 -24 105 -3 c93 -2 107 -5 123 -23 40 -49 -2 -150 -56 -135 -12
4 -80 18 -150 31 -148 29 -165 36 -169 72 -2 17 -10 29 -20 31 -15 3 -18 -4
-18 -37 0 -23 -5 -41 -10 -41 -6 0 -22 -12 -35 -26 -29 -31 -33 -88 -10 -121
14 -20 13 -24 -8 -45 -32 -32 -42 -87 -23 -131 13 -33 13 -35 -10 -47 -28 -15
-44 -56 -37 -94 6 -28 50 -68 95 -85 19 -7 26 -15 22 -26 -5 -13 11 -15 119
-15 94 0 125 3 124 13 -1 6 3 33 7 60 6 35 13 47 26 47 43 0 100 76 100 134 0
16 7 27 20 31 10 3 31 20 45 36 30 36 35 115 9 154 -15 23 -14 26 6 55 12 17
24 49 27 71 l6 41 23 -29 c45 -54 40 -74 -111 -493 -15 -39 -36 -76 -55 -92
l-30 -28 85 0 85 0 20 33 c11 17 32 64 46 102 14 39 32 84 40 102 29 65 74
259 74 320 0 119 -55 193 -174 233 -76 25 -74 20 -29 123 13 32 23 60 21 62
-2 3 -20 -6 -40 -20z m-267 -419 c63 -14 137 -30 166 -36 59 -13 79 -31 87
-80 9 -47 -23 -100 -59 -100 -27 0 -156 40 -220 69 -22 10 -61 24 -87 31 -55
15 -80 39 -80 77 0 29 33 63 62 63 10 0 69 -11 131 -24z m-41 -188 c30 -11 88
-31 128 -45 63 -22 72 -28 72 -49 0 -38 -28 -83 -55 -90 -16 -4 -54 6 -112 29
-49 19 -114 42 -146 51 -45 13 -60 22 -67 42 -14 35 -13 37 11 69 20 25 26 26
68 20 25 -4 71 -16 101 -27z m-94 -173 c166 -48 169 -49 172 -85 4 -37 -21
-80 -46 -80 -9 0 -65 21 -124 46 -119 52 -142 76 -113 120 8 13 18 24 20 24 3
0 43 -11 91 -25z"/>
</g>
</svg>
